<?xml version="1.0" encoding="iso-8859-1"?>
<!-- Generator: Adobe Illustrator 19.0.0, SVG Export Plug-In . SVG Version: 6.00 Build 0)  -->
<svg version="1.1" id="Capa_1" xmlns="http://www.w3.org/2000/svg" xmlns:xlink="http://www.w3.org/1999/xlink" x="0px" y="0px"
	 viewBox="0 0 512.048 512.048" style="enable-background:new 0 0 512.048 512.048;" xml:space="preserve">
<g transform="translate(-1 -1)">
	<path style="fill:#3F5C6C;" d="M71.668,486.545c-2.341,0.001-4.587-0.929-6.243-2.585c-1.656-1.656-2.585-3.901-2.585-6.243V433.58
		c0.001-2.341,0.931-4.586,2.586-6.241l32.724-32.724v-58.138c0-4.875,3.952-8.828,8.828-8.828c4.875,0,8.828,3.952,8.828,8.828
		v61.793c-0.001,2.341-0.931,4.586-2.586,6.241l-32.724,32.724v40.483c0.001,2.341-0.929,4.587-2.585,6.243
		C76.255,485.616,74.01,486.546,71.668,486.545z"/>
	<circle style="fill:#67B9CC;" cx="71.668" cy="495.373" r="17.655"/>
	<path style="fill:#3F5C6C;" d="M442.427,486.545c-2.341,0.001-4.587-0.929-6.243-2.585c-1.656-1.656-2.585-3.901-2.585-6.243
		v-49.31l-32.724-32.724c-1.656-1.655-2.586-3.9-2.586-6.242v-52.966c0-4.875,3.952-8.828,8.828-8.828s8.828,3.952,8.828,8.828
		v49.31l32.724,32.724c1.656,1.655,2.586,3.9,2.586,6.242v52.966c0.001,2.341-0.929,4.587-2.585,6.243
		C447.014,485.616,444.768,486.546,442.427,486.545z"/>
	<circle style="fill:#67B9CC;" cx="442.427" cy="495.373" r="17.655"/>
	<path style="fill:#3F5C6C;" d="M230.565,486.545c-2.341,0.001-4.587-0.929-6.243-2.585c-1.656-1.656-2.585-3.901-2.585-6.243
		V419.58l-32.724-32.724c-1.656-1.655-2.586-3.9-2.586-6.242v-44.138c0-4.875,3.952-8.828,8.828-8.828s8.828,3.952,8.828,8.828
		v40.483l32.724,32.724c1.656,1.655,2.586,3.9,2.586,6.242v61.793c0.001,2.341-0.929,4.587-2.585,6.243
		C235.152,485.616,232.906,486.546,230.565,486.545z"/>
	<circle style="fill:#67B9CC;" cx="230.565" cy="495.373" r="17.655"/>
	<g>
		<path style="fill:#3F5C6C;" d="M301.186,504.2c-2.341,0.001-4.587-0.929-6.243-2.585c-1.656-1.656-2.585-3.901-2.585-6.243
			v-70.621c0-4.875,3.952-8.828,8.828-8.828s8.828,3.952,8.828,8.828v70.621c0.001,2.341-0.929,4.587-2.585,6.243
			C305.773,503.271,303.527,504.201,301.186,504.2z"/>
		<path style="fill:#3F5C6C;" d="M301.186,433.58c-2.341,0.001-4.587-0.929-6.243-2.585c-1.656-1.656-2.585-3.901-2.585-6.243
			v-49.31l-32.724-32.724c-3.41-3.453-3.393-9.012,0.039-12.443c3.432-3.432,8.99-3.449,12.443-0.039l35.31,35.31
			c1.655,1.655,2.586,3.9,2.586,6.241v52.966c0.001,2.341-0.929,4.587-2.585,6.243C305.773,432.65,303.527,433.58,301.186,433.58z"
			/>
	</g>
	<g>
		<circle style="fill:#67B9CC;" cx="301.186" cy="495.373" r="17.655"/>
		<circle style="fill:#67B9CC;" cx="301.186" cy="424.752" r="17.655"/>
	</g>
	<g>
		<path style="fill:#3F5C6C;" d="M151.117,407.097c-2.341,0.001-4.587-0.929-6.243-2.585c-1.656-1.656-2.585-3.901-2.585-6.243
			v-61.793c0-4.875,3.952-8.828,8.828-8.828c4.875,0,8.828,3.952,8.828,8.828v61.793c0.001,2.341-0.929,4.587-2.585,6.243
			C155.704,406.168,153.458,407.097,151.117,407.097z"/>
		<path style="fill:#3F5C6C;" d="M151.117,477.718c-2.341,0.001-4.587-0.929-6.243-2.585c-1.656-1.656-2.585-3.901-2.585-6.243
			v-35.31c0-4.875,3.952-8.828,8.828-8.828c4.875,0,8.828,3.952,8.828,8.828v35.31c0.001,2.341-0.929,4.587-2.585,6.243
			C155.704,476.788,153.458,477.718,151.117,477.718z"/>
		<path style="fill:#3F5C6C;" d="M362.979,433.58c-2.341,0.001-4.587-0.929-6.243-2.585c-1.656-1.656-2.585-3.901-2.585-6.243
			v-88.276c0-4.875,3.952-8.828,8.828-8.828c4.875,0,8.828,3.952,8.828,8.828v88.276c0.001,2.341-0.929,4.587-2.585,6.243
			C367.566,432.65,365.32,433.58,362.979,433.58z"/>
		<path style="fill:#3F5C6C;" d="M362.979,477.718c-2.341,0.001-4.587-0.929-6.243-2.585c-1.656-1.656-2.585-3.901-2.585-6.243
			v-8.828c0-4.875,3.952-8.828,8.828-8.828c4.875,0,8.828,3.952,8.828,8.828v8.828c0.001,2.341-0.929,4.587-2.585,6.243
			C367.566,476.788,365.32,477.718,362.979,477.718z"/>
	</g>
	<path style="fill:#90BAE1;" d="M513.048,248.2c-0.017,48.746-39.53,88.259-88.276,88.276H89.324
		c-44.166,0.041-81.559-32.58-87.512-76.343s21.37-85.186,63.943-96.943c-7.746-21.327,0.329-45.175,19.44-57.407
		s44.148-9.581,60.272,6.384C160.86,41.676,226.895-5.889,298.632,1.842s126.121,68.275,126.14,140.427
		c0.034,5.459-0.291,10.914-0.971,16.331l-0.088,1.324h1.059C473.518,159.942,513.03,199.454,513.048,248.2z"/>
	<g>
		<path style="fill:#ECF0F1;" d="M204.082,168.752c-2.341,0.001-4.587-0.929-6.243-2.585c-1.656-1.656-2.585-3.901-2.585-6.243
			v-26.483c0-4.875,3.952-8.828,8.828-8.828s8.828,3.952,8.828,8.828v26.483c0.001,2.341-0.929,4.587-2.585,6.243
			C208.669,167.823,206.424,168.753,204.082,168.752z"/>
		<path style="fill:#ECF0F1;" d="M239.393,168.752c-2.341,0.001-4.587-0.929-6.243-2.585c-1.656-1.656-2.585-3.901-2.585-6.243
			v-26.483c0-4.875,3.952-8.828,8.828-8.828s8.828,3.952,8.828,8.828v26.483c0.001,2.341-0.929,4.587-2.585,6.243
			C243.98,167.823,241.734,168.753,239.393,168.752z"/>
		<path style="fill:#ECF0F1;" d="M274.703,168.752c-2.341,0.001-4.587-0.929-6.243-2.585c-1.656-1.656-2.585-3.901-2.585-6.243
			v-26.483c0-4.875,3.952-8.828,8.828-8.828s8.828,3.952,8.828,8.828v26.483c0.001,2.341-0.929,4.587-2.585,6.243
			C279.29,167.823,277.044,168.753,274.703,168.752z"/>
		<path style="fill:#ECF0F1;" d="M310.013,168.752c-2.341,0.001-4.587-0.929-6.243-2.585c-1.656-1.656-2.585-3.901-2.585-6.243
			v-26.483c0-4.875,3.952-8.828,8.828-8.828s8.828,3.952,8.828,8.828v26.483c0.001,2.341-0.929,4.587-2.585,6.243
			C314.6,167.823,312.355,168.753,310.013,168.752z"/>
		<path style="fill:#ECF0F1;" d="M204.082,301.166c-2.341,0.001-4.587-0.929-6.243-2.585c-1.656-1.656-2.585-3.901-2.585-6.243
			v-26.483c0-4.875,3.952-8.828,8.828-8.828s8.828,3.952,8.828,8.828v26.483c0.001,2.341-0.929,4.587-2.585,6.243
			C208.669,300.237,206.424,301.166,204.082,301.166z"/>
		<path style="fill:#ECF0F1;" d="M239.393,301.166c-2.341,0.001-4.587-0.929-6.243-2.585c-1.656-1.656-2.585-3.901-2.585-6.243
			v-26.483c0-4.875,3.952-8.828,8.828-8.828s8.828,3.952,8.828,8.828v26.483c0.001,2.341-0.929,4.587-2.585,6.243
			C243.98,300.237,241.734,301.166,239.393,301.166z"/>
		<path style="fill:#ECF0F1;" d="M274.703,301.166c-2.341,0.001-4.587-0.929-6.243-2.585c-1.656-1.656-2.585-3.901-2.585-6.243
			v-26.483c0-4.875,3.952-8.828,8.828-8.828s8.828,3.952,8.828,8.828v26.483c0.001,2.341-0.929,4.587-2.585,6.243
			C279.29,300.237,277.044,301.166,274.703,301.166z"/>
		<path style="fill:#ECF0F1;" d="M310.013,301.166c-2.341,0.001-4.587-0.929-6.243-2.585c-1.656-1.656-2.585-3.901-2.585-6.243
			v-26.483c0-4.875,3.952-8.828,8.828-8.828s8.828,3.952,8.828,8.828v26.483c0.001,2.341-0.929,4.587-2.585,6.243
			C314.6,300.237,312.355,301.166,310.013,301.166z"/>
		<path style="fill:#ECF0F1;" d="M204.082,274.683h-26.483c-4.875,0-8.828-3.952-8.828-8.828s3.952-8.828,8.828-8.828h26.483
			c4.875,0,8.828,3.952,8.828,8.828S208.958,274.683,204.082,274.683z"/>
		<path style="fill:#ECF0F1;" d="M204.082,239.373h-26.483c-4.875,0-8.828-3.952-8.828-8.828c0-4.875,3.952-8.828,8.828-8.828
			h26.483c4.875,0,8.828,3.952,8.828,8.828C212.91,235.42,208.958,239.373,204.082,239.373z"/>
		<path style="fill:#ECF0F1;" d="M204.082,204.062h-26.483c-4.875,0-8.828-3.952-8.828-8.828s3.952-8.828,8.828-8.828h26.483
			c4.875,0,8.828,3.952,8.828,8.828S208.958,204.062,204.082,204.062z"/>
		<path style="fill:#ECF0F1;" d="M204.082,168.752h-26.483c-4.875,0-8.828-3.952-8.828-8.828s3.952-8.828,8.828-8.828h26.483
			c4.875,0,8.828,3.952,8.828,8.828S208.958,168.752,204.082,168.752z"/>
		<path style="fill:#ECF0F1;" d="M336.496,274.683h-26.483c-4.875,0-8.828-3.952-8.828-8.828s3.952-8.828,8.828-8.828h26.483
			c4.875,0,8.828,3.952,8.828,8.828S341.371,274.683,336.496,274.683z"/>
		<path style="fill:#ECF0F1;" d="M336.496,239.373h-26.483c-4.875,0-8.828-3.952-8.828-8.828c0-4.875,3.952-8.828,8.828-8.828
			h26.483c4.875,0,8.828,3.952,8.828,8.828C345.324,235.42,341.371,239.373,336.496,239.373z"/>
		<path style="fill:#ECF0F1;" d="M336.496,204.062h-26.483c-4.875,0-8.828-3.952-8.828-8.828s3.952-8.828,8.828-8.828h26.483
			c4.875,0,8.828,3.952,8.828,8.828S341.371,204.062,336.496,204.062z"/>
		<path style="fill:#ECF0F1;" d="M336.496,168.752h-26.483c-4.875,0-8.828-3.952-8.828-8.828s3.952-8.828,8.828-8.828h26.483
			c4.875,0,8.828,3.952,8.828,8.828S341.371,168.752,336.496,168.752z"/>
	</g>
	<rect x="195.255" y="151.097" style="fill:#46B29D;" width="123.586" height="123.586"/>
	<path style="fill:#D1D4D1;" d="M248.22,195.235h17.655c4.875,0,8.828,3.952,8.828,8.828v17.655c0,4.875-3.952,8.828-8.828,8.828
		H248.22c-4.875,0-8.828-3.952-8.828-8.828v-17.655C239.393,199.187,243.345,195.235,248.22,195.235z"/>
</g>
<g>
</g>
<g>
</g>
<g>
</g>
<g>
</g>
<g>
</g>
<g>
</g>
<g>
</g>
<g>
</g>
<g>
</g>
<g>
</g>
<g>
</g>
<g>
</g>
<g>
</g>
<g>
</g>
<g>
</g>
</svg>
